<mxfile host="65bd71144e" scale="2" border="0">
    <diagram id="KcZ71sXQgwtQmqyAOW7_" name="Page-1">
        <mxGraphModel dx="2147" dy="1024" grid="1" gridSize="10" guides="1" tooltips="1" connect="1" arrows="1" fold="1" page="1" pageScale="1" pageWidth="827" pageHeight="1169" math="0" shadow="0">
            <root>
                <mxCell id="0"/>
                <mxCell id="1" parent="0"/>
                <mxCell id="30" value="" style="rounded=0;whiteSpace=wrap;html=1;fillColor=default;strokeColor=none;" vertex="1" parent="1">
                    <mxGeometry x="-40" y="75.96" width="860" height="364.42" as="geometry"/>
                </mxCell>
                <mxCell id="2" value="" style="rounded=1;whiteSpace=wrap;html=1;arcSize=9;" vertex="1" parent="1">
                    <mxGeometry x="140" y="189.17000000000002" width="170" height="115" as="geometry"/>
                </mxCell>
                <mxCell id="3" value="" style="rounded=1;whiteSpace=wrap;html=1;fillColor=#f5f5f5;fontColor=#333333;strokeColor=#666666;" vertex="1" parent="1">
                    <mxGeometry x="150" y="222.17" width="150" height="72" as="geometry"/>
                </mxCell>
                <mxCell id="4" value="" style="ellipse;whiteSpace=wrap;html=1;aspect=fixed;fillColor=#d5e8d4;strokeColor=#82b366;" vertex="1" parent="1">
                    <mxGeometry x="150" y="208.17" width="6" height="6" as="geometry"/>
                </mxCell>
                <mxCell id="5" value="" style="ellipse;whiteSpace=wrap;html=1;aspect=fixed;fillColor=#d5e8d4;strokeColor=#82b366;" vertex="1" parent="1">
                    <mxGeometry x="294" y="208.17" width="6" height="6" as="geometry"/>
                </mxCell>
                <mxCell id="6" value="&lt;font style=&quot;font-size: 10px;&quot;&gt;input&lt;/font&gt;" style="text;html=1;strokeColor=none;fillColor=none;align=left;verticalAlign=middle;whiteSpace=wrap;rounded=0;" vertex="1" parent="1">
                    <mxGeometry x="160" y="196.17" width="30" height="30" as="geometry"/>
                </mxCell>
                <mxCell id="7" style="edgeStyle=none;html=1;exitX=0.75;exitY=0;exitDx=0;exitDy=0;fontSize=10;startSize=1;endSize=1;" edge="1" parent="1" source="8">
                    <mxGeometry relative="1" as="geometry">
                        <mxPoint x="284.5" y="194.08666666666682" as="targetPoint"/>
                    </mxGeometry>
                </mxCell>
                <mxCell id="8" value="&lt;span style=&quot;font-size: 10px;&quot;&gt;output&lt;/span&gt;" style="text;html=1;strokeColor=none;fillColor=none;align=right;verticalAlign=middle;whiteSpace=wrap;rounded=0;" vertex="1" parent="1">
                    <mxGeometry x="262" y="194.17" width="30" height="30" as="geometry"/>
                </mxCell>
                <mxCell id="9" value="" style="rounded=1;whiteSpace=wrap;html=1;arcSize=4;" vertex="1" parent="1">
                    <mxGeometry x="350" y="136.17000000000002" width="270" height="216" as="geometry"/>
                </mxCell>
                <mxCell id="10" value="" style="rounded=1;whiteSpace=wrap;html=1;fillColor=#f5f5f5;fontColor=#333333;strokeColor=#666666;arcSize=2;" vertex="1" parent="1">
                    <mxGeometry x="360" y="152.17000000000002" width="250" height="190" as="geometry"/>
                </mxCell>
                <mxCell id="11" value="" style="group" vertex="1" connectable="0" parent="1">
                    <mxGeometry x="253" y="191.17" width="45.620000000000005" height="12.040242597140661" as="geometry"/>
                </mxCell>
                <mxCell id="12" value="" style="triangle;whiteSpace=wrap;html=1;fontSize=10;" vertex="1" parent="11">
                    <mxGeometry y="1.5" width="5.25" height="7" as="geometry"/>
                </mxCell>
                <mxCell id="13" value="" style="endArrow=classic;startArrow=classic;html=1;fontSize=10;endSize=1;startSize=1;strokeColor=#FF8000;" edge="1" parent="11">
                    <mxGeometry width="50" height="50" relative="1" as="geometry">
                        <mxPoint x="9.620000000000005" y="10" as="sourcePoint"/>
                        <mxPoint x="19.620000000000005" as="targetPoint"/>
                    </mxGeometry>
                </mxCell>
                <mxCell id="14" value="" style="sketch=0;pointerEvents=1;shadow=0;dashed=0;html=1;strokeColor=none;fillColor=#000000;labelPosition=center;verticalLabelPosition=bottom;verticalAlign=top;outlineConnect=0;align=center;shape=mxgraph.office.concepts.pin;fontSize=10;rotation=45;" vertex="1" parent="11">
                    <mxGeometry x="24.03" y="1.169999999999959" width="6" height="10.25" as="geometry"/>
                </mxCell>
                <mxCell id="15" value="" style="group" vertex="1" connectable="0" parent="11">
                    <mxGeometry x="36.620000000000005" y="1.169999999999959" width="9" height="9" as="geometry"/>
                </mxCell>
                <mxCell id="16" value="" style="ellipse;whiteSpace=wrap;html=1;aspect=fixed;fontSize=10;fillColor=none;" vertex="1" parent="15">
                    <mxGeometry width="9" height="9" as="geometry"/>
                </mxCell>
                <mxCell id="17" value="" style="endArrow=none;html=1;fontSize=10;startSize=1;endSize=1;" edge="1" parent="15">
                    <mxGeometry width="50" height="50" relative="1" as="geometry">
                        <mxPoint x="2.739130434782609" y="4.276956521739133" as="sourcePoint"/>
                        <mxPoint x="6.6521739130434785" y="4.304347826086957" as="targetPoint"/>
                    </mxGeometry>
                </mxCell>
                <mxCell id="18" value="&lt;font style=&quot;font-size: 20px;&quot;&gt;Expand&lt;/font&gt;" style="text;html=1;strokeColor=none;fillColor=none;align=center;verticalAlign=middle;whiteSpace=wrap;rounded=0;" vertex="1" parent="1">
                    <mxGeometry x="284" y="376.17" width="110" height="30" as="geometry"/>
                </mxCell>
                <mxCell id="19" value="" style="group" vertex="1" connectable="0" parent="1">
                    <mxGeometry x="562" y="138.17000000000002" width="45.620000000000005" height="12.040242597140661" as="geometry"/>
                </mxCell>
                <mxCell id="20" value="" style="triangle;whiteSpace=wrap;html=1;fontSize=10;" vertex="1" parent="19">
                    <mxGeometry y="1.5" width="5.25" height="7" as="geometry"/>
                </mxCell>
                <mxCell id="21" value="" style="endArrow=classic;startArrow=classic;html=1;fontSize=10;endSize=1;startSize=1;strokeColor=#FF8000;" edge="1" parent="19">
                    <mxGeometry width="50" height="50" relative="1" as="geometry">
                        <mxPoint x="9.620000000000005" y="10" as="sourcePoint"/>
                        <mxPoint x="19.620000000000005" as="targetPoint"/>
                    </mxGeometry>
                </mxCell>
                <mxCell id="22" value="" style="sketch=0;pointerEvents=1;shadow=0;dashed=0;html=1;strokeColor=none;fillColor=#000000;labelPosition=center;verticalLabelPosition=bottom;verticalAlign=top;outlineConnect=0;align=center;shape=mxgraph.office.concepts.pin;fontSize=10;rotation=45;" vertex="1" parent="19">
                    <mxGeometry x="24.03" y="1.169999999999959" width="6" height="10.25" as="geometry"/>
                </mxCell>
                <mxCell id="23" value="" style="group" vertex="1" connectable="0" parent="19">
                    <mxGeometry x="36.620000000000005" y="1.169999999999959" width="9" height="9" as="geometry"/>
                </mxCell>
                <mxCell id="24" value="" style="ellipse;whiteSpace=wrap;html=1;aspect=fixed;fontSize=10;fillColor=none;" vertex="1" parent="23">
                    <mxGeometry width="9" height="9" as="geometry"/>
                </mxCell>
                <mxCell id="25" value="" style="endArrow=none;html=1;fontSize=10;startSize=1;endSize=1;" edge="1" parent="23">
                    <mxGeometry width="50" height="50" relative="1" as="geometry">
                        <mxPoint x="2.739130434782609" y="4.276956521739133" as="sourcePoint"/>
                        <mxPoint x="6.6521739130434785" y="4.304347826086957" as="targetPoint"/>
                    </mxGeometry>
                </mxCell>
                <mxCell id="26" value="" style="endArrow=none;dashed=1;html=1;strokeColor=#000000;fontSize=10;startSize=1;endSize=1;entryX=0.003;entryY=0.035;entryDx=0;entryDy=0;entryPerimeter=0;" edge="1" parent="1" target="9">
                    <mxGeometry width="50" height="50" relative="1" as="geometry">
                        <mxPoint x="160" y="186.1700000000003" as="sourcePoint"/>
                        <mxPoint x="210" y="136.17000000000002" as="targetPoint"/>
                    </mxGeometry>
                </mxCell>
                <mxCell id="27" value="" style="endArrow=none;dashed=1;html=1;strokeColor=#000000;fontSize=10;startSize=1;endSize=1;entryX=0.059;entryY=1.017;entryDx=0;entryDy=0;exitX=0;exitY=1;exitDx=0;exitDy=0;entryPerimeter=0;" edge="1" parent="1" source="9" target="2">
                    <mxGeometry width="50" height="50" relative="1" as="geometry">
                        <mxPoint x="450" y="356.17" as="sourcePoint"/>
                        <mxPoint x="190" y="386.17" as="targetPoint"/>
                    </mxGeometry>
                </mxCell>
                <mxCell id="28" value="&lt;font style=&quot;font-size: 10px;&quot;&gt;expand&lt;/font&gt;" style="text;html=1;strokeColor=none;fillColor=none;align=center;verticalAlign=middle;whiteSpace=wrap;rounded=0;fontSize=20;" vertex="1" parent="1">
                    <mxGeometry x="258" y="162.99999999999997" width="26" height="23" as="geometry"/>
                </mxCell>
                <mxCell id="29" value="&lt;font style=&quot;font-size: 10px;&quot;&gt;expand&lt;/font&gt;" style="text;html=1;strokeColor=none;fillColor=none;align=center;verticalAlign=middle;whiteSpace=wrap;rounded=0;fontSize=20;" vertex="1" parent="1">
                    <mxGeometry x="562" y="109.99999999999997" width="26" height="23" as="geometry"/>
                </mxCell>
            </root>
        </mxGraphModel>
    </diagram>
</mxfile>